<?xml version="1.0" encoding="UTF-8" standalone="no"?>
<svg
   xmlns:dc="http://purl.org/dc/elements/1.1/"
   xmlns:cc="http://creativecommons.org/ns#"
   xmlns:rdf="http://www.w3.org/1999/02/22-rdf-syntax-ns#"
   xmlns:svg="http://www.w3.org/2000/svg"
   xmlns="http://www.w3.org/2000/svg"
   xmlns:sodipodi="http://sodipodi.sourceforge.net/DTD/sodipodi-0.dtd"
   xmlns:inkscape="http://www.inkscape.org/namespaces/inkscape"
   version="1.1"
   x="0px"
   y="0px"
   viewBox="0 0 50 100"
   enable-background="new 0 0 100 100"
   xml:space="preserve"
   id="svg10"
   sodipodi:docname="noun_Man_347814.svg"
   inkscape:version="0.92.4 (5da689c313, 2019-01-14)"
   width="50"
   height="100"><metadata
     id="metadata16"><rdf:RDF><cc:Work
         rdf:about=""><dc:format>image/svg+xml</dc:format><dc:type
           rdf:resource="http://purl.org/dc/dcmitype/StillImage" /><dc:title></dc:title></cc:Work></rdf:RDF></metadata><defs
     id="defs14" /><sodipodi:namedview
     pagecolor="#ffffff"
     bordercolor="#666666"
     borderopacity="1"
     objecttolerance="10"
     gridtolerance="10"
     guidetolerance="10"
     inkscape:pageopacity="0"
     inkscape:pageshadow="2"
     inkscape:window-width="1920"
     inkscape:window-height="1137"
     id="namedview12"
     showgrid="false"
     inkscape:zoom="5.3400704"
     inkscape:cx="22.85064"
     inkscape:cy="48.469887"
     inkscape:window-x="-8"
     inkscape:window-y="-8"
     inkscape:window-maximized="1"
     inkscape:current-layer="svg10" /><circle
     cx="26"
     cy="15.695"
     r="8.3990002"
     id="circle2" /><path
     d="m 43.405,34.951 c 0,-5.467 -3.949,-9.589 -9.186,-9.589 H 17.781 c -5.236,0 -9.186,4.123 -9.186,9.589 0,2.571 0,18.865 0,18.976 0,2.022 1.639,3.66 3.66,3.66 2.021,0 3.66,-1.639 3.66,-3.66 0,-0.005 -0.002,-0.01 -0.002,-0.016 h 0.017 c 0,0 -0.022,-19.28 -0.004,-19.429 0.061,-0.273 0.291,-0.481 0.583,-0.481 0.332,0 0.598,0.265 0.608,0.594 h 0.009 v 51.753 c 0,2.017 1.635,3.651 3.651,3.651 2.016,0 3.651,-1.635 3.651,-3.651 V 60.782 h 3.141 v 25.567 c 0,2.017 1.635,3.651 3.651,3.651 2.016,0 3.651,-1.635 3.651,-3.651 V 34.595 h 0.009 c 0.01,-0.329 0.277,-0.594 0.608,-0.594 0.291,0 0.521,0.208 0.583,0.481 0.017,0.149 -0.004,19.429 -0.004,19.429 h 0.017 c 0,0.005 -0.002,0.01 -0.002,0.016 0,2.022 1.639,3.66 3.66,3.66 2.021,0 3.66,-1.639 3.66,-3.66 0.003,-0.111 0.003,-16.405 0.003,-18.976 z"
     id="path4"
     inkscape:connector-curvature="0" /></svg>